<?xml version="1.0" standalone="no"?>
<!DOCTYPE svg PUBLIC "-//W3C//DTD SVG 20010904//EN"
 "http://www.w3.org/TR/2001/REC-SVG-20010904/DTD/svg10.dtd">
<svg version="1.0" xmlns="http://www.w3.org/2000/svg"
 width="900.000000pt" height="900.000000pt" viewBox="0 0 900.000000 900.000000"
 preserveAspectRatio="xMidYMid meet">
<metadata>
Created by potrace 1.11, written by Peter Selinger 2001-2013
</metadata>
<g transform="translate(0.000000,900.000000) scale(0.100000,-0.100000)"
fill="#000000" stroke="none">
<path d="M0 4500 l0 -4500 4500 0 4500 0 0 4500 0 4500 -4500 0 -4500 0 0
-4500z m5205 3582 c473 -59 903 -191 1247 -383 172 -96 395 -267 523 -400 261
-273 428 -570 525 -931 17 -62 35 -127 40 -144 20 -62 50 -313 56 -474 11
-263 -14 -488 -81 -738 -44 -167 -92 -298 -161 -438 -48 -96 -153 -269 -173
-284 -4 -3 -21 -26 -39 -51 -17 -26 -78 -95 -134 -154 -192 -202 -372 -334
-629 -465 l-168 -85 109 -155 c60 -85 140 -200 178 -255 38 -55 107 -154 153
-220 47 -66 94 -136 106 -155 12 -20 31 -46 42 -59 11 -13 103 -142 203 -287
101 -145 201 -289 223 -321 22 -31 99 -142 172 -247 73 -105 136 -195 140
-201 11 -13 167 -237 177 -252 6 -10 -139 -13 -711 -13 l-718 0 -298 448
c-163 246 -317 476 -341 512 -25 36 -191 286 -370 555 -180 270 -346 519 -370
555 -167 248 -677 1021 -682 1034 -5 14 22 16 254 16 281 0 409 9 571 41 347
67 642 244 787 471 124 193 177 391 177 653 -1 327 -82 575 -249 765 -155 177
-359 291 -634 356 -195 46 -295 54 -709 54 -212 0 -700 3 -1083 7 l-697 6
-123 186 c-68 102 -136 204 -151 226 -49 72 -553 830 -561 843 -6 10 289 12
1606 9 1600 -3 1614 -3 1793 -25z"/>
</g>
</svg>
