<svg version="1" xmlns="http://www.w3.org/2000/svg" width="1200" height="1200" viewBox="0 0 900.000000 900.000000"><path d="M0 450v450h900V0H0v450zM512 91.3c8 1 19.2 2.4 25 3.2 12.1 1.8 42.3 8.3 43 9.4.3.4 5.9 2.4 12.5 4.5 38.4 12.2 70.3 30.2 97.5 55.3 9.2 8.4 25.9 28.4 33.3 39.8 5.4 8.4 14.4 26.2 18.5 36.6 2.9 7.3 9.4 29.1 10.8 35.9.3 1.9 1 3.9 1.4 4.5 1.3 1.7 4 23.1 4.9 39.5.6 9.2.6 21.4 0 30-.9 14.6-3.7 36.1-4.8 37-.3.3-1.9 5.7-3.5 12-7.1 29-21.3 57.7-39.3 80-6.7 8.2-24.4 25.7-33.8 33.4-10.8 8.8-25.9 18.3-41.3 26-12.6 6.3-15 7.9-14.5 9.3.4 1 6.4 9.9 13.3 19.8 26.1 37.2 35.8 51.2 39.4 57 2.1 3.3 4.3 6.4 5 7 1.5 1.2 18.5 25.5 59.8 85.5 7.8 11.3 14.5 20.7 14.8 21 .4.3 4.6 6 9.3 12.8L772 763H628.9l-8.6-13.3c-22.6-34.6-49.6-75.3-50.7-76.2-.6-.6-3.6-4.8-6.6-9.5-2.9-4.7-15.6-23.9-28.2-42.8-12.5-18.8-22.8-34.5-22.8-34.7 0-.9-16.2-24.9-17.6-26-.6-.6-10.3-15-21.4-32-11.2-17.1-27-41-35.2-53.2-8.1-12.3-14.8-22.5-14.8-22.8 0-.3 7.8-.5 17.3-.5 22.6 0 47.3-1.6 61.3-4 23.4-4 44.8-12.9 61.8-25.8 11.1-8.3 18.8-17.4 25.4-29.9 9.6-18.5 13.2-34 13.2-57.5 0-41.2-12.8-70.8-39.1-90.3-13.7-10.3-31.4-18.3-49.9-22.6-22.6-5.3-20.6-5.2-138.5-5.7l-110-.4-9.7-14.7c-20.3-30.8-57.2-86.2-65.9-98.9l-9-13.3 158.8.4c140.4.3 160.5.6 173.3 2z"/></svg>