<?xml version="1.0" encoding="iso-8859-1"?>
<!-- Generator: Adobe Illustrator 19.0.0, SVG Export Plug-In . SVG Version: 6.00 Build 0)  -->
<svg version="1.1" id="Layer_1" xmlns="http://www.w3.org/2000/svg"  x="0px" y="0px"
	 viewBox="0 0 512.001 512.001" style="enable-background:new 0 0 512.001 512.001;" xml:space="preserve">
<path style="fill:#8BC34A;" d="M256,167.206c-12.929,0-25.74-0.429-38.423-1.244L256,244.945l38.423-78.983
	C281.74,166.777,268.93,167.206,256,167.206z"/>
<path style="fill:#F473B4;" d="M128.003,153.212l25.897,83.889l50.025-72.171C177.981,162.66,152.624,158.709,128.003,153.212z"/>
<path style="fill:#1EB8E8;" d="M41.602,126.479l11.864,86.637l61.095-63.077C89.364,143.769,64.987,135.871,41.602,126.479z"/>
<path style="fill:#FFCA28;" d="M383.998,153.212l-25.897,83.889l-50.025-72.171C334.02,162.66,359.377,158.709,383.998,153.212z"/>
<path style="fill:#FF6F43;" d="M470.399,126.479l-11.864,86.637l-61.095-63.077C422.636,143.769,447.014,135.871,470.399,126.479z"
	/>
<path style="opacity:0.1;enable-background:new    ;" d="M470.399,126.479c-23.385,9.392-47.763,17.29-72.959,23.56l25.859,26.698
	c14.237-4.01,28.277-8.53,42.074-13.557L470.399,126.479z"/>
<path style="opacity:0.1;enable-background:new    ;" d="M383.998,153.213c-24.621,5.496-49.978,9.447-75.923,11.718l21.11,30.455
	c14.747-1.743,29.392-4.007,43.89-6.79L383.998,153.213z"/>
<path style="opacity:0.1;enable-background:new    ;" d="M256,167.206c-12.929,0-25.74-0.429-38.423-1.244l16.217,33.337
	c7.391,0.263,14.793,0.41,22.206,0.41s14.815-0.147,22.206-0.41l16.217-33.337C281.74,166.777,268.93,167.206,256,167.206z"/>
<path style="opacity:0.1;enable-background:new    ;" d="M138.927,188.596c14.499,2.781,29.143,5.046,43.89,6.79l21.11-30.455
	c-25.945-2.271-51.303-6.222-75.924-11.718L138.927,188.596z"/>
<path style="opacity:0.1;enable-background:new    ;" d="M46.627,163.181c13.796,5.027,27.836,9.546,42.074,13.557l25.859-26.698
	c-25.196-6.271-49.574-14.168-72.959-23.56L46.627,163.181z"/>
<path style="fill:#263238;" d="M256.001,174.707c-88.365,0-175.425-19.556-251.769-56.551c-3.728-1.807-5.285-6.294-3.479-10.021
	c1.806-3.728,6.292-5.286,10.021-3.479c74.317,36.014,159.115,55.05,245.228,55.05c86.112,0,170.91-19.036,245.227-55.05
	c3.727-1.807,8.215-0.249,10.021,3.479c1.807,3.727,0.249,8.214-3.479,10.021C431.425,155.151,344.366,174.707,256.001,174.707z"/>
<path style="fill:#8BC34A;" d="M256,330.359c-12.929,0-25.74-0.429-38.423-1.244L256,408.098l38.423-78.983
	C281.74,329.93,268.93,330.359,256,330.359z"/>
<path style="fill:#FFCA28;" d="M128.003,316.365l25.897,83.889l50.025-72.171C177.981,325.813,152.624,321.862,128.003,316.365z"/>
<path style="fill:#FF6F43;" d="M41.602,289.633l11.864,86.637l61.095-63.077C89.364,306.921,64.987,299.025,41.602,289.633z"/>
<path style="fill:#F473B4;" d="M383.998,316.365l-25.897,83.889l-50.025-72.171C334.02,325.813,359.377,321.862,383.998,316.365z"/>
<path style="fill:#1EB8E8;" d="M470.399,289.633l-11.864,86.637l-61.095-63.077C422.636,306.921,447.014,299.025,470.399,289.633z"
	/>
<path style="opacity:0.1;enable-background:new    ;" d="M470.399,289.633c-23.385,9.392-47.763,17.29-72.959,23.56l25.859,26.698
	c14.237-4.011,28.277-8.53,42.074-13.557L470.399,289.633z"/>
<path style="opacity:0.1;enable-background:new    ;" d="M383.998,316.365c-24.621,5.496-49.978,9.447-75.923,11.718l21.11,30.456
	c14.747-1.743,29.391-4.007,43.89-6.79L383.998,316.365z"/>
<path style="opacity:0.1;enable-background:new    ;" d="M256,330.359c-12.929,0-25.74-0.429-38.423-1.244l16.217,33.337
	c7.391,0.263,14.793,0.41,22.206,0.41s14.815-0.147,22.206-0.41l16.217-33.337C281.74,329.93,268.93,330.359,256,330.359z"/>
<path style="opacity:0.1;enable-background:new    ;" d="M138.927,351.749c14.499,2.782,29.143,5.046,43.89,6.79l21.11-30.456
	c-25.945-2.271-51.303-6.222-75.924-11.718L138.927,351.749z"/>
<path style="opacity:0.1;enable-background:new    ;" d="M46.627,326.334c13.796,5.027,27.836,9.546,42.074,13.557l25.859-26.698
	c-25.196-6.271-49.574-14.168-72.959-23.56L46.627,326.334z"/>
<path style="fill:#263238;" d="M256.001,337.86c-88.365,0-175.425-19.556-251.769-56.552c-3.728-1.807-5.285-6.294-3.479-10.021
	c1.807-3.728,6.293-5.284,10.021-3.479c74.317,36.014,159.114,55.05,245.227,55.05s170.91-19.037,245.227-55.05
	c3.726-1.808,8.214-0.25,10.021,3.479c1.807,3.727,0.249,8.214-3.478,10.021C431.425,318.304,344.366,337.86,256.001,337.86z"/>
<g>
</g>
<g>
</g>
<g>
</g>
<g>
</g>
<g>
</g>
<g>
</g>
<g>
</g>
<g>
</g>
<g>
</g>
<g>
</g>
<g>
</g>
<g>
</g>
<g>
</g>
<g>
</g>
<g>
</g>
</svg>
