<?xml version="1.0" encoding="iso-8859-1"?>
<!-- Generator: Adobe Illustrator 18.0.0, SVG Export Plug-In . SVG Version: 6.00 Build 0)  -->
<!DOCTYPE svg PUBLIC "-//W3C//DTD SVG 1.1//EN" "http://www.w3.org/Graphics/SVG/1.1/DTD/svg11.dtd">
<svg version="1.1" id="Capa_1" xmlns="http://www.w3.org/2000/svg" x="0px" y="0px"
	 viewBox="0 0 492.813 492.813" style="enable-background:new 0 0 492.813 492.813;" xml:space="preserve">
<path d="M468.899,145.003c-16.802-4.95-43.171-12.753-71.939-21.276c28.294-5.159,49.816-29.971,49.816-59.733
	c0-33.489-27.245-60.734-60.733-60.734c-33.489,0-60.734,27.245-60.734,60.734c0,17.384,7.352,33.073,19.098,44.154
	c-21.878-6.488-42.689-12.662-59.39-17.618c-1.716-3.767-4.074-6.446-6.22-8.268c-9.131-7.748-21.033-6.193-23.327-5.803
	c-0.933,0.159-1.846,0.419-2.722,0.776c-0.207,0.084-2.953,1.203-7.707,3.14c-2.359-2.407-9.584-3.935-14.334-2.81
	c-10.74,2.544-16.25,6.875-19.806,16.721c-17.169,6.997-38.1,15.528-59.821,24.385c4.671-8.323,7.348-17.909,7.348-28.113
	c0-20.064-10.311-37.759-25.906-48.086c2.933-4.09,4.593-8.813,4.593-13.887C137.114,12.557,120.586,0,99.487,0
	S61.86,12.557,61.86,28.586c0,5.569,1.999,10.717,5.487,15.066C52.712,54.117,43.145,71.236,43.145,90.559
	c0,26.122,17.472,48.227,41.339,55.278c-21.12,8.62-39.725,16.221-52.391,21.408c-6.511,2.667-19.941,8.168-20.393,23.564
	L1.474,287.325c-0.048,0.455-0.072,0.912-0.072,1.37c0,13.967,11.364,25.33,25.332,25.33h0.141V459.12
	c0,18.37,14.946,33.315,33.316,33.315h7.111c17.135,0,30.79-13.012,33.206-31.643c0.088-0.68,0.182-1.397,0.281-2.153
	c0.095,0.738,0.185,1.442,0.269,2.113c2.36,18.654,16.018,31.684,33.213,31.684h7.111c18.37,0,33.315-14.944,33.315-33.314
	c0-29.025,11.54-194.475,13.607-223.883c9.902-11.001,41.46-46.121,61.852-69.545c22.347,16.79,47.488,37.1,57.751,45.455v246.942
	c0,19.146,15.576,34.722,34.723,34.722h7.604c17.92,0,32.156-13.607,34.62-33.092c0.325-2.57,0.722-5.624,1.175-9.044
	c0.465,3.471,0.872,6.544,1.202,9.086c2.523,19.459,16.757,33.05,34.613,33.05h7.604c19.146,0,34.724-15.576,34.724-34.722V302.042
	h1.05c0.002,0,0.002,0,0.004,0c6.993,0,13.569-2.724,18.515-7.669c4.945-4.945,7.669-11.52,7.669-18.515V170.654
	C491.409,164.936,489.212,150.987,468.899,145.003z M69.18,91.926l57.732-19.193c3.477,5.08,5.516,11.219,5.516,17.826
	c0,17.446-14.194,31.641-31.641,31.641C83.798,122.199,69.899,108.74,69.18,91.926z M386.042,29.26
	c19.152,0,34.733,15.582,34.733,34.734c0,19.152-15.581,34.734-34.733,34.734c-19.152,0-34.734-15.582-34.734-34.734
	C351.308,44.842,366.89,29.26,386.042,29.26z M67.302,466.435h-7.111c-4.034,0-7.316-3.281-7.316-7.315v-59.034h29.679
	c-2.705,19.476-6.217,44.939-7.829,57.362C74.292,460.786,72.241,466.435,67.302,466.435z M141.383,466.435h-7.111
	c-4.962,0-6.998-5.624-7.418-8.945c-1.561-12.35-4.848-36.229-7.8-57.404h32.35c-1.595,27.287-2.705,49.649-2.705,59.035
	C148.699,463.154,145.417,466.435,141.383,466.435z M261.195,102.277C261.202,102.422,261.196,102.093,261.195,102.277
	c-0.046,8.53-1.34,11.525-18.236,31.855c-17.635,21.218-76.369,86.368-76.96,87.023c-1.942,2.153-3.108,4.893-3.313,7.786
	c-0.357,5.032-5.732,80.951-9.713,145.145H52.875v-73.061c0-7.18-5.82-13-13-13H27.545l10.038-94.74L261.195,102.277z
	 M465.411,275.858c0,0.087-0.097,0.184-0.185,0.184h-14.052c-7.18,0-13,5.82-13,13v169.049c0,4.81-3.913,8.722-8.724,8.722h-7.604
	c-5.906,0-8.329-6.533-8.83-10.394c-3.26-25.134-13.993-101.622-14.101-102.392c-0.9-6.416-6.388-11.189-12.866-11.193
	c-0.003,0-0.005,0-0.008,0c-6.475,0-11.963,4.766-12.871,11.177c-0.108,0.76-10.805,76.305-14.109,102.449
	c-0.486,3.846-2.892,10.353-8.825,10.353h-7.604c-4.81,0-8.723-3.912-8.723-8.722V204.982c0-3.888-1.739-7.57-4.742-10.04
	c-0.36-0.296-33.189-27.273-62.146-49.097c9.523-11.536,15.379-19.232,18.257-28.117c21.173,6.283,47.494,14.091,73.884,21.914
	l13.277,22.515l-12.959,77.056c-0.646,3.843,0.466,7.773,3.029,10.708l13.74,15.73c2.469,2.826,6.038,4.448,9.791,4.448
	c3.752,0,7.321-1.621,9.79-4.447l13.74-15.729c2.565-2.936,3.677-6.865,3.03-10.709l-12.783-76.009l7.435-9.314
	c21.718,6.431,41.002,12.134,54.298,16.051c2.112,0.623,3.277,1.231,3.859,1.605V275.858z"/>
<g>
</g>
<g>
</g>
<g>
</g>
<g>
</g>
<g>
</g>
<g>
</g>
<g>
</g>
<g>
</g>
<g>
</g>
<g>
</g>
<g>
</g>
<g>
</g>
<g>
</g>
<g>
</g>
<g>
</g>
</svg>
